HIERARCHY
ROOT Hips
{
	OFFSET -3.266409 79.531403 0.110988
	CHANNELS 6 Xposition Yposition Zposition Zrotation Yrotation Xrotation 
	JOINT Spine
	{
		OFFSET 0.000000 8.814246 -2.080107
		CHANNELS 3 Zrotation Yrotation Xrotation
		JOINT Spine1
		{
			OFFSET 0.000000 8.844141 -0.000000
			CHANNELS 3 Zrotation Yrotation Xrotation
			JOINT Spine2
			{
				OFFSET 0.000000 11.682268 -0.000000
				CHANNELS 3 Zrotation Yrotation Xrotation
				JOINT Spine3
				{
					OFFSET 0.000000 11.746700 -0.000000
					CHANNELS 3 Zrotation Yrotation Xrotation
					JOINT Neck
					{
						OFFSET 0.000000 17.658264 -0.000000
						CHANNELS 3 Zrotation Yrotation Xrotation
						JOINT Neck1
						{
							OFFSET 0.000000 5.101515 0.000000
							CHANNELS 3 Zrotation Yrotation Xrotation
							JOINT Head
							{
								OFFSET 0.000000 5.101515 0.000000
								CHANNELS 3 Zrotation Yrotation Xrotation
								JOINT HeadEnd
								{
									OFFSET 0.000000 11.655085 -0.000000
									CHANNELS 3 Zrotation Yrotation Xrotation
									End Site
									{
										OFFSET 0.000000 0.000000 0.000000
									}
								}
							}
						}
					}
					JOINT RightShoulder
					{
						OFFSET -2.625389 11.175210 -0.000000
						CHANNELS 3 Zrotation Yrotation Xrotation
						JOINT RightArm
						{
							OFFSET -0.000000 10.434715 0.000000
							CHANNELS 3 Zrotation Yrotation Xrotation
							JOINT RightForeArm
							{
								OFFSET 0.000000 29.628420 0.000000
								CHANNELS 3 Zrotation Yrotation Xrotation
								JOINT RightHand
								{
									OFFSET -0.000000 22.857611 -0.000000
									CHANNELS 3 Zrotation Yrotation Xrotation
									JOINT RightHandThumb1
									{
										OFFSET -2.867323 3.959563 2.944291
										CHANNELS 3 Zrotation Yrotation Xrotation
										JOINT RightHandThumb2
										{
											OFFSET -0.000000 3.350399 -0.000000
											CHANNELS 3 Zrotation Yrotation Xrotation
											JOINT RightHandThumb3
											{
												OFFSET -0.000000 3.756509 0.000000
												CHANNELS 3 Zrotation Yrotation Xrotation
												JOINT RightHandThumb4
												{
													OFFSET -0.000000 3.147345 -0.000000
													CHANNELS 3 Zrotation Yrotation Xrotation
													End Site
													{
														OFFSET 0.000000 0.000000 0.000000
													}
												}
											}
										}
									}
									JOINT RightHandIndex1
									{
										OFFSET -0.086752 10.030893 2.345280
										CHANNELS 3 Zrotation Yrotation Xrotation
										JOINT RightHandIndex2
										{
											OFFSET -0.000000 4.061090 0.000000
											CHANNELS 3 Zrotation Yrotation Xrotation
											JOINT RightHandIndex3
											{
												OFFSET 0.000000 3.248873 0.000000
												CHANNELS 3 Zrotation Yrotation Xrotation
												JOINT RightHandIndex4
												{
													OFFSET 0.000000 2.639709 0.000000
													CHANNELS 3 Zrotation Yrotation Xrotation
													End Site
													{
														OFFSET 0.000000 0.000000 0.000000
													}
												}
											}
										}
									}
									JOINT RightHandMiddle1
									{
										OFFSET 0.104102 9.502952 0.006768
										CHANNELS 3 Zrotation Yrotation Xrotation
										JOINT RightHandMiddle2
										{
											OFFSET -0.000000 4.568727 -0.000000
											CHANNELS 3 Zrotation Yrotation Xrotation
											JOINT RightHandMiddle3
											{
												OFFSET -0.000000 3.654981 -0.000000
												CHANNELS 3 Zrotation Yrotation Xrotation
												JOINT RightHandMiddle4
												{
													OFFSET 0.000000 2.741236 0.000000
													CHANNELS 3 Zrotation Yrotation Xrotation
													End Site
													{
														OFFSET 0.000000 0.000000 0.000000
													}
												}
											}
										}
									}
									JOINT RightHandRing1
									{
										OFFSET 0.086752 8.921708 -2.267442
										CHANNELS 3 Zrotation Yrotation Xrotation
										JOINT RightHandRing2
										{
											OFFSET 0.000000 4.061090 0.000000
											CHANNELS 3 Zrotation Yrotation Xrotation
											JOINT RightHandRing3
											{
												OFFSET -0.000000 3.654981 -0.000000
												CHANNELS 3 Zrotation Yrotation Xrotation
												JOINT RightHandRing4
												{
													OFFSET -0.000000 2.741236 -0.000000
													CHANNELS 3 Zrotation Yrotation Xrotation
													End Site
													{
														OFFSET 0.000000 0.000000 0.000000
													}
												}
											}
										}
									}
									JOINT RightHandPinky1
									{
										OFFSET -0.173504 7.976997 -4.467199
										CHANNELS 3 Zrotation Yrotation Xrotation
										JOINT RightHandPinky2
										{
											OFFSET 0.000000 3.350399 0.000000
											CHANNELS 3 Zrotation Yrotation Xrotation
											JOINT RightHandPinky3
											{
												OFFSET -0.000000 2.842763 -0.000000
												CHANNELS 3 Zrotation Yrotation Xrotation
												JOINT RightHandPinky4
												{
													OFFSET -0.000000 2.639709 -0.000000
													CHANNELS 3 Zrotation Yrotation Xrotation
													End Site
													{
														OFFSET 0.000000 0.000000 0.000000
													}
												}
											}
										}
									}
									JOINT RightForeArmEnd
									{
										OFFSET 0.000000 0.000000 0.000000
										CHANNELS 3 Zrotation Yrotation Xrotation
										End Site
										{
											OFFSET 0.000000 0.000000 0.000000
										}
									}
								}
								JOINT RightArmEnd
								{
									OFFSET 0.000000 0.000000 0.000000
									CHANNELS 3 Zrotation Yrotation Xrotation
									End Site
									{
										OFFSET 0.000000 0.000000 0.000000
									}
								}
							}
						}
					}
					JOINT LeftShoulder
					{
						OFFSET 2.625389 11.175210 -0.000000
						CHANNELS 3 Zrotation Yrotation Xrotation
						JOINT LeftArm
						{
							OFFSET 0.000000 10.813635 0.000000
							CHANNELS 3 Zrotation Yrotation Xrotation
							JOINT LeftForeArm
							{
								OFFSET 0.000000 28.724781 -0.000000
								CHANNELS 3 Zrotation Yrotation Xrotation
								JOINT LeftHand
								{
									OFFSET 0.644384 25.716167 -0.328871
									CHANNELS 3 Zrotation Yrotation Xrotation
									JOINT LeftHandThumb1
									{
										OFFSET 2.867323 3.959563 2.944291
										CHANNELS 3 Zrotation Yrotation Xrotation
										JOINT LeftHandThumb2
										{
											OFFSET 0.000000 3.350399 -0.000000
											CHANNELS 3 Zrotation Yrotation Xrotation
											JOINT LeftHandThumb3
											{
												OFFSET 0.000000 3.756509 -0.000000
												CHANNELS 3 Zrotation Yrotation Xrotation
												JOINT LeftHandThumb4
												{
													OFFSET -0.000000 3.100000 0.000000
													CHANNELS 3 Zrotation Yrotation Xrotation
													End Site
													{
														OFFSET 0.000000 0.000000 0.000000
													}
												}
											}
										}
									}
									JOINT LeftHandIndex1
									{
										OFFSET 0.086752 10.030893 2.345280
										CHANNELS 3 Zrotation Yrotation Xrotation
										JOINT LeftHandIndex2
										{
											OFFSET -0.000000 4.061090 0.000000
											CHANNELS 3 Zrotation Yrotation Xrotation
											JOINT LeftHandIndex3
											{
												OFFSET -0.000000 3.248873 0.000000
												CHANNELS 3 Zrotation Yrotation Xrotation
												JOINT LeftHandIndex4
												{
													OFFSET -0.000000 2.639709 0.000000
													CHANNELS 3 Zrotation Yrotation Xrotation
													End Site
													{
														OFFSET 0.000000 0.000000 0.000000
													}
												}
											}
										}
									}
									JOINT LeftHandMiddle1
									{
										OFFSET -0.104102 9.502952 0.006768
										CHANNELS 3 Zrotation Yrotation Xrotation
										JOINT LeftHandMiddle2
										{
											OFFSET 0.000000 4.568727 -0.000000
											CHANNELS 3 Zrotation Yrotation Xrotation
											JOINT LeftHandMiddle3
											{
												OFFSET 0.000000 3.654981 -0.000000
												CHANNELS 3 Zrotation Yrotation Xrotation
												JOINT LeftHandMiddle4
												{
													OFFSET -0.000000 2.741236 -0.000000
													CHANNELS 3 Zrotation Yrotation Xrotation
													End Site
													{
														OFFSET 0.000000 0.000000 0.000000
													}
												}
											}
										}
									}
									JOINT LeftHandRing1
									{
										OFFSET -0.086752 8.921708 -2.267442
										CHANNELS 3 Zrotation Yrotation Xrotation
										JOINT LeftHandRing2
										{
											OFFSET 0.000000 4.061090 -0.000000
											CHANNELS 3 Zrotation Yrotation Xrotation
											JOINT LeftHandRing3
											{
												OFFSET 0.000000 3.654981 0.000000
												CHANNELS 3 Zrotation Yrotation Xrotation
												JOINT LeftHandRing4
												{
													OFFSET 0.000000 2.741236 -0.000000
													CHANNELS 3 Zrotation Yrotation Xrotation
													End Site
													{
														OFFSET 0.000000 0.000000 0.000000
													}
												}
											}
										}
									}
									JOINT LeftHandPinky1
									{
										OFFSET 0.173504 7.976997 -4.467199
										CHANNELS 3 Zrotation Yrotation Xrotation
										JOINT LeftHandPinky2
										{
											OFFSET -0.000000 3.350399 -0.000000
											CHANNELS 3 Zrotation Yrotation Xrotation
											JOINT LeftHandPinky3
											{
												OFFSET -0.000000 2.842763 0.000000
												CHANNELS 3 Zrotation Yrotation Xrotation
												JOINT LeftHandPinky4
												{
													OFFSET -0.000000 2.639709 -0.000000
													CHANNELS 3 Zrotation Yrotation Xrotation
													End Site
													{
														OFFSET 0.000000 0.000000 0.000000
													}
												}
											}
										}
									}
									JOINT LeftForeArmEnd
									{
										OFFSET 0.000000 0.000000 0.000000
										CHANNELS 3 Zrotation Yrotation Xrotation
										End Site
										{
											OFFSET 0.000000 0.000000 0.000000
										}
									}
								}
								JOINT LeftArmEnd
								{
									OFFSET 0.000000 0.000000 0.000000
									CHANNELS 3 Zrotation Yrotation Xrotation
									End Site
									{
										OFFSET 0.000000 0.000000 0.000000
									}
								}
							}
						}
					}
				}
			}
		}
	}
	JOINT RightUpLeg
	{
		OFFSET -11.289943 -0.000000 0.000000
		CHANNELS 3 Zrotation Yrotation Xrotation
		JOINT RightLeg
		{
			OFFSET 0.000000 -38.200325 0.000000
			CHANNELS 3 Zrotation Yrotation Xrotation
			JOINT RightFoot
			{
				OFFSET -0.000000 -39.900856 -0.000000
				CHANNELS 3 Zrotation Yrotation Xrotation
				JOINT RightToeBase
				{
					OFFSET -0.000000 -0.000000 15.261641
					CHANNELS 3 Zrotation Yrotation Xrotation
					JOINT RightToeBaseEnd
					{
						OFFSET -0.000000 0.000000 7.370709
						CHANNELS 3 Zrotation Yrotation Xrotation
						End Site
						{
							OFFSET 0.000000 0.000000 0.000000
						}
					}
				}
				JOINT RightLegEnd
				{
					OFFSET 0.000000 0.000000 0.000000
					CHANNELS 3 Zrotation Yrotation Xrotation
					End Site
					{
						OFFSET 0.000000 0.000000 0.000000
					}
				}
			}
			JOINT RightUpLegEnd
			{
				OFFSET 0.000000 0.000000 0.000000
				CHANNELS 3 Zrotation Yrotation Xrotation
				End Site
				{
					OFFSET 0.000000 0.000000 0.000000
				}
			}
		}
	}
	JOINT LeftUpLeg
	{
		OFFSET 11.315661 -0.000000 0.000000
		CHANNELS 3 Zrotation Yrotation Xrotation
		JOINT LeftLeg
		{
			OFFSET -0.000000 -38.200325 0.000000
			CHANNELS 3 Zrotation Yrotation Xrotation
			JOINT LeftFoot
			{
				OFFSET 0.000000 -39.900856 -0.000000
				CHANNELS 3 Zrotation Yrotation Xrotation
				JOINT LeftToeBase
				{
					OFFSET -0.000000 -0.000000 15.261641
					CHANNELS 3 Zrotation Yrotation Xrotation
					JOINT LeftToeBaseEnd
					{
						OFFSET -0.000000 0.000000 7.539996
						CHANNELS 3 Zrotation Yrotation Xrotation
						End Site
						{
							OFFSET 0.000000 0.000000 0.000000
						}
					}
				}
				JOINT LeftLegEnd
				{
					OFFSET 0.000000 0.000000 0.000000
					CHANNELS 3 Zrotation Yrotation Xrotation
					End Site
					{
						OFFSET 0.000000 0.000000 0.000000
					}
				}
			}
			JOINT LeftUpLegEnd
			{
				OFFSET 0.000000 0.000000 0.000000
				CHANNELS 3 Zrotation Yrotation Xrotation
				End Site
				{
					OFFSET 0.000000 0.000000 0.000000
				}
			}
		}
	}
}
MOTION
Frames: 4
Frame Time: 0.016667
-3.266409 79.531403 0.110988 -7.310895 -1.434283 -11.039620 1.278308 -0.069262 11.991365 -0.494784 0.022257 16.375029 0.372066 -3.078590 7.187468 -2.068310 -1.177693 0.625395 21.693256 -23.015013 -10.242325 -4.074671 -21.129717 -18.176783 4.349400 3.536556 -17.693235 0.000000 0.000000 0.000000 92.133537 -0.303576 7.538315 71.115707 -28.370342 -0.150354 2.466802 28.467176 68.412842 -31.570160 -5.234616 13.273445 19.337130 -2.031679 36.355694 0.000000 0.000000 -46.800003 0.000000 0.000000 -32.500000 0.000000 0.000000 0.000000 56.195728 0.000000 -6.695885 39.337006 0.000000 0.000000 39.337006 0.000000 0.000000 0.000000 0.000000 0.000000 55.701305 -0.000000 -5.561837 38.990917 0.000000 0.000000 38.990917 0.000000 0.000000 0.000000 0.000000 0.000000 56.936172 -0.000000 -4.312707 39.855324 0.000000 0.000000 39.855324 0.000000 0.000000 0.000000 0.000000 0.000000 55.345234 -0.000000 -4.463607 38.741653 0.000000 0.000000 38.741653 0.000000 0.000000 0.000000 0.000000 0.000000 0.000000 0.000000 0.000000 0.000000 0.000000 0.000000 -81.295990 -1.829308 10.967088 -78.368927 35.560932 -3.565616 -3.016845 -20.185411 70.133286 26.231134 7.519623 12.420911 -19.636759 2.019985 36.247723 0.000000 0.000000 -47.519993 0.000000 0.000000 -33.000000 0.000000 0.000000 0.000000 -60.692387 0.000002 -16.731424 -42.484684 0.000000 0.000000 -42.484684 0.000000 0.000000 0.000000 0.000000 0.000000 -61.401566 0.000001 -13.844251 -42.981094 0.000000 0.000000 -42.981094 0.000000 0.000000 0.000000 0.000000 0.000000 -66.151672 -0.000000 -8.035922 -46.306156 0.000000 0.000000 -46.306156 0.000000 0.000000 0.000000 0.000000 0.000000 -67.378777 0.000000 -2.157070 -47.165154 0.000000 0.000000 -47.165154 0.000000 0.000000 0.000000 0.000000 0.000000 0.000000 0.000000 0.000000 0.000000 0.000000 0.000000 -6.249070 3.425074 -15.349514 -0.410900 -0.488135 40.090530 9.271364 -7.876365 14.285064 -0.166320 -0.069956 -26.164860 0.000000 0.000000 0.000000 0.000000 0.000000 0.000000 0.000000 0.000000 0.000000 14.520680 9.013096 -15.217500 0.756316 0.461387 58.616604 -4.345493 8.661281 -3.501052 -0.201762 0.477775 -28.118750 0.000000 0.000000 0.000000 0.000000 0.000000 0.000000 0.000000 0.000000 0.000000 
-4.024127 79.428360 0.641749 -5.549721 -1.623827 -10.213836 -0.810117 0.459366 11.832423 -1.229597 0.246256 13.707717 0.973690 -2.229887 9.965731 -1.668463 -0.815111 0.659062 15.031031 -13.919225 -8.813279 -4.653338 -12.421412 -15.911288 4.199421 3.919699 -17.924082 0.000000 0.000000 0.000000 91.598061 0.983388 8.206191 71.451042 -21.233847 -4.477938 1.098248 25.770031 70.838600 -27.557262 -1.247131 12.241652 18.562971 -2.122358 36.573742 -0.000024 0.000018 -44.749008 0.000014 0.000052 -31.192978 0.000010 -0.000005 -0.000039 52.754032 -0.183231 -6.581385 36.381428 0.115278 -0.077451 36.525562 0.128731 -0.125877 -0.000028 0.000039 -0.000022 51.430702 -0.087709 -5.203669 35.414089 0.042670 -0.064148 35.372478 0.053686 -0.037635 0.000008 0.000029 0.000002 52.252098 0.096902 -3.371689 36.203159 -0.070459 -0.034439 36.103363 -0.051474 0.003422 0.000002 -0.001357 0.000019 50.670795 0.243461 -3.465742 34.878731 -0.170548 -0.088056 34.510410 -0.137225 -0.003579 0.000029 -0.000020 -0.000018 0.000000 0.000000 0.000000 0.000000 0.000000 0.000000 -85.213745 -1.736590 9.306242 -71.647232 35.995007 -2.417246 -0.849423 -18.561640 68.918289 23.513117 5.540820 8.855096 -18.678663 1.998111 36.644588 -0.000014 0.000017 -45.542683 -0.000112 -0.000013 -31.557590 -0.001538 -0.000029 0.000569 -56.732117 -0.219046 -15.972224 -39.197536 0.022124 0.048941 -39.379005 0.044352 0.020840 0.000011 0.001083 0.000021 -56.200226 -0.075447 -12.411860 -39.248623 -0.007883 0.023925 -39.087402 0.005574 0.032186 -0.001030 -0.000074 -0.000272 -60.651237 0.101849 -5.970892 -42.559483 -0.009299 -0.013404 -42.557766 -0.019121 0.003157 -0.000014 0.000021 0.000011 -61.311150 0.258559 -0.634636 -42.824257 -0.007483 0.233551 -42.871143 -0.020170 0.175526 -0.000134 0.000006 -0.000033 0.000000 0.000000 0.000000 0.000000 0.000000 0.000000 -5.581220 3.408413 -18.251141 -0.615829 -0.782649 43.590694 7.333509 -8.371167 12.999424 0.622062 0.641755 -29.900438 0.000000 0.000000 0.000000 0.000000 0.000000 0.000000 0.000000 0.000000 0.000000 14.946490 5.326028 -12.941420 0.580391 0.612983 54.935802 -7.672349 9.303263 -4.515101 -0.054286 0.169138 -28.343676 0.000000 0.000000 0.000000 0.000000 0.000000 0.000000 0.000000 0.000000 0.000000 
-4.770472 79.399216 0.888016 -5.690887 -2.170785 -9.954090 -0.685240 0.437002 11.757691 -1.242331 0.213733 14.057633 1.057970 -2.446876 9.919560 -1.681988 -0.896207 0.471371 14.674637 -12.835429 -8.884937 -4.510152 -11.463271 -15.993493 3.901507 3.855198 -17.896458 0.000000 0.000000 0.000000 91.372581 0.904072 8.334464 70.405617 -22.199938 -4.032861 0.971216 25.751152 71.512947 -27.998940 -2.114267 11.644533 18.306665 -2.145612 36.654705 -0.000013 0.000026 -44.104870 0.000011 0.000054 -30.771561 0.000022 -0.000003 -0.000047 51.357998 -0.178573 -6.501881 35.413692 0.086904 -0.093066 35.513042 0.106818 -0.144658 -0.000017 0.000040 -0.000031 50.021454 -0.085632 -5.484065 34.473076 0.034444 -0.069266 34.421246 0.045452 -0.041676 0.000010 0.000078 -0.000004 50.909473 0.092138 -4.218939 35.234417 -0.052866 -0.020238 35.173813 -0.040864 0.011329 -0.000008 -0.001374 0.000010 49.407574 0.243751 -4.665293 34.080837 -0.119653 -0.041660 33.666309 -0.095206 0.035441 0.000032 -0.000012 -0.000020 0.000000 0.000000 0.000000 0.000000 0.000000 0.000000 -85.125038 -1.704144 9.527280 -71.275085 35.342346 -2.405269 -1.086099 -18.960737 68.829071 22.504389 5.379312 7.933634 -18.415298 2.031100 36.718876 -0.000021 0.000019 -44.907730 -0.000104 -0.000009 -31.142847 -0.001739 -0.000018 0.000618 -55.399979 -0.204090 -15.990160 -38.045395 0.022095 0.097999 -38.225235 0.041932 0.058522 0.000015 0.001566 0.000012 -54.871300 -0.069029 -12.796415 -38.147865 -0.007414 0.040972 -37.995674 0.007358 0.045570 -0.001557 -0.000084 -0.000226 -59.205757 0.104474 -6.838233 -41.541103 -0.007230 -0.047595 -41.563530 -0.018272 -0.019641 0.000297 0.000022 0.000011 -59.796295 0.281632 -1.722654 -41.936279 0.007033 0.116248 -41.987850 -0.017135 0.081947 -0.000159 0.000017 -0.000040 0.000000 0.000000 0.000000 0.000000 0.000000 0.000000 -4.679124 3.651951 -18.557980 -0.588667 -0.714884 44.019238 6.706455 -8.385616 12.900030 0.655311 0.598461 -29.689888 0.000000 0.000000 0.000000 0.000000 0.000000 0.000000 0.000000 0.000000 0.000000 15.444431 5.650859 -12.460494 0.599191 0.634958 55.472595 -8.376641 9.959852 -4.958693 -0.016560 0.186580 -28.340660 0.000000 0.000000 0.000000 0.000000 0.000000 0.000000 0.000000 0.000000 0.000000 
-5.500123 79.398041 1.144398 -5.827980 -2.728783 -9.775848 -0.441966 0.385256 11.694520 -1.303880 0.189223 14.389853 1.194324 -2.747147 9.933198 -1.789313 -0.958424 0.461277 14.421175 -11.826372 -8.924706 -4.416908 -10.519823 -16.101416 3.599098 3.835154 -17.947519 0.000000 0.000000 0.000000 91.252869 0.827041 8.303921 69.355919 -22.896372 -3.253559 0.804711 25.373865 72.065727 -27.482141 -4.484761 11.359420 17.819818 -2.149759 36.855991 -0.000010 0.000026 -42.935074 0.000010 0.000055 -29.972145 0.000022 -0.000001 -0.000047 49.226570 -0.180162 -6.326448 33.914322 0.054707 -0.081373 33.977966 0.078711 -0.137621 -0.000016 0.000038 -0.000034 47.878937 -0.087589 -5.786913 32.992310 0.024520 -0.064582 32.945183 0.034743 -0.037349 0.000011 0.000130 -0.000002 48.751820 0.092516 -5.211909 33.734978 -0.033578 -0.009000 33.705044 -0.029245 0.019089 -0.000006 -0.001183 0.000010 47.323620 0.261882 -6.081824 32.757717 -0.072527 0.015104 32.325821 -0.054565 0.081901 -0.000017 -0.000013 -0.000019 0.000000 0.000000 0.000000 0.000000 0.000000 0.000000 -85.239883 -1.630662 9.552231 -70.900307 34.557938 -2.817903 -1.159787 -19.109354 69.845787 21.084705 5.844355 7.385953 -18.034035 2.049966 36.855522 -0.000022 0.000019 -44.001419 -0.000090 -0.000008 -30.532265 -0.001684 -0.000018 0.000655 -53.584164 -0.202680 -15.851434 -36.560654 0.022206 0.150215 -36.735458 0.039989 0.100668 0.000015 0.001931 0.000014 -53.145920 -0.066558 -13.062657 -36.740753 -0.006144 0.060010 -36.598904 0.009113 0.060897 -0.001876 -0.000086 -0.000191 -57.475090 0.107922 -7.658565 -40.300564 -0.009030 -0.087084 -40.339428 -0.019065 -0.043551 0.000543 0.000023 0.000010 -58.096874 0.309886 -2.912241 -40.897781 0.009828 -0.026634 -40.932983 -0.021268 -0.029318 -0.000341 0.000015 -0.000039 0.000000 0.000000 0.000000 0.000000 0.000000 0.000000 -3.772146 3.558964 -18.767281 -0.570238 -0.678822 44.419914 6.122796 -8.388135 12.600892 0.690983 0.579555 -29.499916 0.000000 0.000000 0.000000 0.000000 0.000000 0.000000 0.000000 0.000000 0.000000 15.997655 5.910151 -11.876473 0.612888 0.657707 55.565025 -8.867944 10.577857 -5.103715 0.023326 0.232998 -28.371662 0.000000 0.000000 0.000000 0.000000 0.000000 0.000000 0.000000 0.000000 0.000000 
